<svg width="171" height="157" viewBox="0 0 171 157" fill="none" xmlns="http://www.w3.org/2000/svg">
<g id="Black">
<path id="Vector" d="M83.201 0.812696C79.7326 1.87529 77.4004 4.33603 76.7725 7.6077L76.5632 8.67029L78.8954 8.44658C80.211 8.33473 83.201 8.25084 85.593 8.25084C87.985 8.25084 90.975 8.33473 92.2906 8.44658L94.6228 8.67029L94.4135 7.6077C93.8753 4.83936 92.1411 2.63029 89.5099 1.37195C88.1046 0.700844 84.5764 0.393251 83.201 0.812696Z" fill="#121212"/>
<path id="Vector_2" d="M79.314 11.6344C63.3474 13.4241 50.2811 19.2404 39.6666 29.2791C29.1717 39.2059 22.8927 51.5655 21.1286 65.7707L20.9492 67.3926H85.5631H150.177V66.8054C150.177 65.3513 149.16 59.9544 148.234 56.5989C142.612 36.0741 125.24 19.492 103.294 13.6757C97.4932 12.1378 93.8753 11.6904 86.789 11.6065C83.2608 11.5505 79.8821 11.5785 79.314 11.6344ZM67.8922 23.8263C68.2809 24.1898 68.3706 25.4202 68.0118 25.9235C67.8922 26.0913 66.6962 26.6785 65.3507 27.2098C58.8026 29.8104 52.0452 34.592 48.218 39.3737C47.4705 40.2965 46.6034 41.1913 46.2446 41.3311C45.3177 41.7505 44.2114 41.1354 44.0918 40.1567C43.9423 39.0941 45.0486 37.6679 48.6665 34.1726C53.0917 29.8663 57.3076 27.07 62.869 24.6931C65.7394 23.4907 67.2344 23.2111 67.8922 23.8263Z" fill="#121212"/>
<path id="Vector_3" d="M1.6936 71.6988C0.826502 72.5098 0.677002 72.8453 0.677002 73.9359C0.677002 74.9425 0.856402 75.3899 1.5441 76.117L2.4112 77.0398L85.4435 77.1236L168.476 77.1796L169.492 76.2288C170.359 75.4179 170.509 75.0823 170.509 73.9638C170.509 72.8453 170.359 72.5098 169.492 71.6988L168.476 70.7481H85.593H2.7102L1.6936 71.6988Z" fill="#121212"/>
<path id="Vector_4" d="M100.094 81.4579C94.264 84.394 88.3139 90.1264 82.0947 98.739C79.5532 102.29 75.726 108.274 74.0815 111.294L73.334 112.693H74.1712C75.726 112.693 79.6728 111.602 82.1246 110.483C85.9219 108.75 86.8189 108.023 88.3737 105.366C92.8288 97.7044 99.7058 90.0705 108.167 83.3594C109.991 81.9053 111.516 80.7029 111.576 80.6469C111.636 80.591 109.483 80.5351 106.792 80.5351H101.888L100.094 81.4579Z" fill="#121212"/>
<path id="Vector_5" d="M129.247 81.2622C124.762 82.4926 120.516 84.5618 115.074 88.169C110.47 91.217 106.374 94.6564 99.2274 101.423C92.2906 107.995 89.8388 110.008 85.7724 112.301C80.3904 115.349 73.1845 116.747 68.55 115.657C64.9321 114.818 62.3906 113.42 59.4006 110.623C56.1116 107.547 53.899 104.443 49.5635 96.8935C42.8659 85.2329 39.6965 81.9333 34.7032 81.4579C32.9092 81.2902 29.5903 81.9613 28.7531 82.6603C27.5571 83.667 27.7664 84.3661 30.0687 86.715C31.4441 88.1131 31.8627 88.3927 32.072 88.0852C32.4607 87.5259 32.4308 86.2955 32.0421 85.4566C31.2946 83.9187 33.6268 82.5485 34.8228 83.8068C36.1683 85.2609 36.1982 87.8615 34.8826 89.9866L34.1351 91.189L35.4208 93.0626C39.4573 98.8509 41.4905 103.605 45.4971 116.635C49.1748 128.576 51.6266 134.56 55.2146 140.18L56.9488 142.893H62.1215C67.9221 142.893 68.3706 143.032 68.1912 144.682C68.0417 146.08 67.2643 146.276 61.972 146.22L57.3375 146.164L55.4837 151.03C54.4671 153.714 53.6299 155.979 53.6299 156.119C53.6 156.231 60.4172 156.287 68.7593 156.259L83.9186 156.175L85.4136 151.561L86.9385 146.947L89.5996 145.717C91.6029 144.794 92.769 144.011 94.4135 142.501C98.1211 139.034 100.603 134.811 105.327 123.878C113.251 105.562 119.44 97.4527 130.144 91.4407L132.387 90.1824L132.117 89.1477C131.4 86.4913 134.001 83.3315 136.842 83.3315C137.32 83.3315 137.798 83.5831 138.097 84.0305C138.785 85.0092 138.307 85.904 136.812 86.5751C135.975 86.9666 135.646 87.3022 135.586 87.8615C135.526 88.3089 135.556 88.6444 135.646 88.6444C135.705 88.6444 136.812 88.2809 138.068 87.8335C139.323 87.3861 140.729 86.9107 141.207 86.8268C142.164 86.6311 143.3 85.5126 143.3 84.7855C143.3 83.9466 140.25 81.5418 138.546 81.0105C136.154 80.2835 132.387 80.3953 129.247 81.2622Z" fill="#121212"/>
</g>
</svg>
